<svg xmlns="http://www.w3.org/2000/svg" width="483.561" height="89.242" viewBox="0 0 483.561 89.242">
  <path id="about" d="M-140.89-26.484h-8.164q-5.156,0-6.953-4.219l-15.469-36.133a17.122,17.122,0,0,0-7.93-8.477,24.011,24.011,0,0,0-11.68-2.852,23.788,23.788,0,0,0-11.641,2.852,17.122,17.122,0,0,0-7.93,8.477L-226.085-30.7q-1.8,4.219-7.031,4.219h-8.164v-7.969h8.086L-217.57-70.82A23.514,23.514,0,0,1-206.827-82.3a32.523,32.523,0,0,1,15.742-3.828A32.523,32.523,0,0,1-175.343-82.3,23.514,23.514,0,0,1-164.6-70.82l15.625,36.367h8.086Zm0,13.242h-8.164a21.517,21.517,0,0,1-11.328-3.086,17.86,17.86,0,0,1-7.461-8.4L-182.96-60.2q-1.992-4.687-8.125-4.687-6.094,0-8.086,4.688l-15.078,35.469a17.68,17.68,0,0,1-7.441,8.359,21.817,21.817,0,0,1-11.426,3.125h-8.164v-7.969h8.164a13.319,13.319,0,0,0,7.07-1.953,11.237,11.237,0,0,0,4.609-5.2l15.43-35.82a13.352,13.352,0,0,1,6.055-6.523,18.235,18.235,0,0,1,8.867-2.148,18.461,18.461,0,0,1,8.906,2.148,13.316,13.316,0,0,1,6.094,6.523l15.43,35.82a11.152,11.152,0,0,0,4.57,5.215,13.22,13.22,0,0,0,7.031,1.934h8.164Zm0,13.242H-241.28V-7.969h8.164A27.284,27.284,0,0,0-218.8-11.875a22.047,22.047,0,0,0,9.277-10.469l14.8-35.117q.781-1.836,3.633-1.836,2.93,0,3.711,1.836l14.766,35.117a22.175,22.175,0,0,0,9.336,10.508,26.984,26.984,0,0,0,14.219,3.867h8.164Zm-44.961-34.453L-191.085-47.7l-5.234,13.242Zm5.234,13.242-2.07-5.273h-16.758l-2.07,5.273Zm8.828,13.242a28.155,28.155,0,0,1-4.844-5.273H-205.5a28.3,28.3,0,0,1-4.844,5.273ZM-51.646-41.055q0,15.078-10.078,22.852-9.062,7.031-24.727,7.031T-111.177-18.2q-10.078-7.773-10.078-22.852v-42.7h7.969v13.242h26.836q15.742,0,24.727,6.8Q-51.646-56.094-51.646-41.055Zm13.2,0q0,20.781-13.828,32.344Q-65.24,2.109-86.451,2.109t-34.18-10.82q-13.828-11.563-13.828-32.344v-42.7h7.969v42.7q0,17.344,11.563,26.641Q-104.3-5.859-86.451-5.859t28.477-8.555q11.562-9.3,11.563-26.641,0-17.3-11.562-26.406-10.547-8.32-28.477-8.32h-21.523V-83.75h21.523q21.289,0,34.18,10.586Q-38.443-61.8-38.443-41.055Zm-21.172,0q0-21.484-26.836-21.484h-26.836v21.484q0,21.914,26.836,21.914T-59.615-41.055Zm-5.312,0q0,9.336-6.25,13.359-5.156,3.32-15.273,3.32-10.156,0-15.273-3.32-6.25-3.984-6.25-13.359V-57.227h21.523q10.273,0,15.273,3.047Q-64.927-50.352-64.927-41.055Zm-7.969,0q0-5.664-3.984-7.266-2.3-.937-9.57-.937h-13.555v8.2q0,5.781,3.945,7.539,2.539,1.172,9.609,1.172t9.609-1.172Q-72.9-35.273-72.9-41.055ZM64-41.641q0,22.227-15.43,33.906Q35.605,2.109,16,2.109T-16.582-7.734q-15.43-11.68-15.43-33.906t15.43-33.945Q-3.574-85.469,16-85.469t32.578,9.883Q64-63.867,64-41.641Zm-7.969,0q0-17.93-12.148-27.461Q33.145-77.5,16-77.5t-27.891,8.4Q-24.043-59.57-24.043-41.641t12.148,27.422Q-1.191-5.859,16-5.859t27.891-8.359Q56.035-23.711,56.035-41.641Zm-5.234,0q0,15.156-10.039,23.164Q31.582-11.094,16-11.094T-8.77-18.477q-10.039-8.008-10.039-23.164T-8.77-64.8Q.41-72.187,16-72.187T40.762-64.8Q50.8-56.8,50.8-41.641Zm-7.969,0q0-10.977-6.875-16.777T16-64.219q-13.086,0-19.961,5.8T-10.84-41.641q0,10.977,6.875,16.777T16-19.062q13.086,0,19.961-5.8T42.832-41.641Zm-5.312,0Q37.52-24.375,16-24.375T-5.527-41.641q0-17.344,21.523-17.344T37.52-41.641Zm-7.969,0q0-4.414-1.8-6.289Q24.824-51.016,16-51.016T4.238-47.93q-1.8,1.875-1.8,6.289t1.8,6.25Q7.168-32.344,16-32.344t11.758-3.047Q29.551-37.227,29.551-41.641Zm110.416-.469q0,17.344-21.523,17.344T96.92-42.109V-83.75h7.969v41.641q0,4.414,1.8,6.289,2.93,3.086,11.758,3.086T130.2-35.82Q132-37.7,132-42.109V-83.75h7.969Zm13.242,0q0,15.156-10,23.2-9.18,7.383-24.766,7.383T93.677-18.906q-10-8.047-10-23.2V-83.75h7.969v41.641q0,11.016,6.855,16.816t19.941,5.8q13.086,0,19.941-5.8t6.855-16.816V-83.75h7.969Zm13.242,0q0,22.227-15.43,33.945-12.969,9.883-32.578,9.883T85.865-8.164q-15.43-11.719-15.43-33.945V-83.75H78.4v41.641q0,17.93,12.148,27.461,10.7,8.4,27.891,8.4t27.891-8.4q12.148-9.531,12.148-27.461V-83.75h7.969Zm74.83-33.672H213.273V-83.75H241.28Zm0,49.3H228.859q-9.3,0-11.836-1.523-3.75-2.266-3.75-10.82V-57.266H241.28V-49.3H221.241v10.469a5.877,5.877,0,0,0,.664,3.4q.82,1.016,3.438,1.016l15.938-.039Zm-46.523-49.3H172.882V-83.75h21.875ZM241.28-13.242H228.859q-15.078,0-21.484-5-7.344-5.742-7.344-20.469V-62.539H172.882v-7.969H200.03V-83.75H208v13.242H241.28v7.969H208v23.828q0,11.211,5,14.727,3.984,2.773,15.859,2.773H241.28ZM241.28,0H228.859q-20.9,0-31.211-8.984-10.859-9.531-10.859-29.844V-49.3H172.882v-7.969h21.875v18.438q0,16.953,8.555,24.141,7.93,6.719,25.547,6.719H241.28Z" transform="translate(241.781 86.633)" fill="none" stroke="#fff" stroke-width="1"/>
</svg>
