<svg xmlns="http://www.w3.org/2000/svg" xmlns:xlink="http://www.w3.org/1999/xlink" width="693.845" height="148.578" viewBox="0 0 693.845 148.578">
  <defs>
    <filter id="contact" x="0" y="0" width="693.845" height="148.578" filterUnits="userSpaceOnUse">
      <feOffset input="SourceAlpha"/>
      <feGaussianBlur stdDeviation="10" result="blur"/>
      <feFlood flood-color="#d8b732"/>
      <feComposite operator="in" in2="blur"/>
      <feComposite in="SourceGraphic"/>
    </filter>
  </defs>
  <g transform="matrix(1, 0, 0, 1, 0, 0)" filter="url(#contact)">
    <path id="contact-2" data-name="contact" d="M69.453-26.484H44.023q-10.156,0-14.961-2.578Q22.5-32.539,22.5-41.641q0-9.18,6.484-12.812,4.961-2.812,15.039-2.812h25.43V-49.3H44.023q-10.7,0-12.773,3.359a8.591,8.591,0,0,0-.781,4.3,9.119,9.119,0,0,0,.547,3.75q1.719,3.438,13.008,3.438h25.43Zm0,13.242H44.023q-15.781,0-24.57-6.133Q9.219-26.562,9.219-41.641q0-15.117,10.2-22.461,8.906-6.406,24.609-6.406h25.43v7.969H44.023q-26.836,0-26.836,20.9,0,11.523,8.008,16.484,6.445,3.945,18.828,3.945h25.43ZM69.453,0H44.023Q22.617,0,10-9.844q-13.984-10.9-13.984-31.8,0-20.859,13.945-31.992Q22.656-83.75,44.023-83.75h25.43v7.969H44.023q-17.93,0-28.359,7.891-11.68,8.828-11.68,26.25T15.7-15.586q10.313,7.617,28.32,7.617h25.43ZM171.9-41.641q0,22.227-15.43,33.906Q143.5,2.109,123.892,2.109T91.314-7.734q-15.43-11.68-15.43-33.906t15.43-33.945q13.008-9.883,32.578-9.883t32.578,9.883Q171.9-63.867,171.9-41.641Zm-7.969,0q0-17.93-12.148-27.461-10.742-8.4-27.891-8.4T96-69.1Q83.853-59.57,83.853-41.641T96-14.219q10.7,8.359,27.891,8.359t27.891-8.359Q163.931-23.711,163.931-41.641Zm-5.234,0q0,15.156-10.039,23.164-9.18,7.383-24.766,7.383T99.127-18.477Q89.087-26.484,89.088-41.641T99.127-64.8q9.18-7.383,24.766-7.383T148.658-64.8Q158.7-56.8,158.7-41.641Zm-7.969,0q0-10.977-6.875-16.777t-19.961-5.8q-13.086,0-19.961,5.8T97.056-41.641q0,10.977,6.875,16.777t19.961,5.8q13.086,0,19.961-5.8T150.728-41.641Zm-5.312,0q0,17.266-21.523,17.266T102.369-41.641q0-17.344,21.523-17.344T145.416-41.641Zm-7.969,0q0-4.414-1.8-6.289-2.93-3.086-11.758-3.086T112.134-47.93q-1.8,1.875-1.8,6.289t1.8,6.25q2.93,3.047,11.758,3.047t11.758-3.047Q137.447-37.227,137.447-41.641ZM274.347,0h-7.969V-41.641q0-17.93-12.148-27.461-10.7-8.4-27.891-8.4t-27.891,8.4Q186.3-59.57,186.3-41.641V0h-7.969V-41.641q0-22.227,15.43-33.945,12.969-9.883,32.578-9.883t32.578,9.883q15.43,11.719,15.43,33.945ZM261.1,0h-7.969V-41.641q0-11.016-6.855-16.816t-19.941-5.8q-13.086,0-19.941,5.8t-6.855,16.816V0h-7.969V-41.641q0-15.156,10-23.2,9.18-7.383,24.766-7.383T251.1-64.844q10,8.047,10,23.2ZM247.863,0h-7.969V-41.641q0-4.414-1.8-6.289-2.93-3.086-11.758-3.086T214.581-47.93q-1.8,1.875-1.8,6.289V0h-7.969V-41.641q0-17.344,21.523-17.344t21.523,17.344ZM349.177-75.781H321.169V-83.75h28.008Zm0,49.3H336.755q-9.3,0-11.836-1.523-3.75-2.266-3.75-10.82V-57.266h28.008V-49.3H329.138v10.469a5.877,5.877,0,0,0,.664,3.4q.82,1.016,3.438,1.016l15.938-.039Zm-46.523-49.3H280.778V-83.75h21.875Zm46.523,62.539H336.755q-15.078,0-21.484-5-7.344-5.742-7.344-20.469V-62.539H280.778v-7.969h27.148V-83.75H315.9v13.242h33.281v7.969H315.9v23.828q0,11.211,5,14.727,3.984,2.773,15.859,2.773h12.422Zm0,13.242H336.755q-20.9,0-31.211-8.984-10.859-9.531-10.859-29.844V-49.3H280.778v-7.969h21.875v18.438q0,16.953,8.555,24.141,7.93,6.719,25.547,6.719h12.422ZM451.623,0h-7.969V-41.641q0-17.93-12.148-27.461-10.7-8.4-27.891-8.4t-27.891,8.4q-12.148,9.531-12.148,27.461t12.148,27.422q10.7,8.359,27.891,8.359a49.326,49.326,0,0,0,21.523-4.414v8.633a59.782,59.782,0,0,1-21.523,3.75q-19.609,0-32.578-9.844-15.43-11.68-15.43-33.906t15.43-33.945q12.969-9.883,32.578-9.883t32.578,9.883q15.43,11.719,15.43,33.945Zm-13.2,0h-7.969V-20.312q-9.3,9.219-26.836,9.219-15.586,0-24.766-7.383-10.039-8.008-10.039-23.164T378.85-64.8q9.18-7.383,24.766-7.383T428.381-64.8Q438.42-56.8,438.42-41.641Zm-7.969-41.641q0-10.977-6.875-16.777t-19.961-5.8q-13.086,0-19.961,5.8T376.78-41.641q0,10.977,6.875,16.777t19.961,5.8q13.086,0,19.961-5.8T430.452-41.641Zm-5.312,0q0,17.266-21.523,17.266T382.092-41.641q0-17.344,21.523-17.344T425.139-41.641Zm-7.969,0q0-4.414-1.8-6.289-2.93-3.086-11.758-3.086T391.858-47.93q-1.8,1.875-1.8,6.289t1.8,6.25q2.93,3.047,11.758,3.047t11.758-3.047Q417.17-37.227,417.17-41.641Zm136.861,2.5q-.9,20.938-16.094,31.953-12.891,9.3-31.875,9.3-19.609,0-32.578-9.844-15.43-11.68-15.43-33.906t15.43-33.945q13.008-9.883,32.578-9.883,18.906,0,31.758,9.258,15.2,10.938,16.172,31.758h-7.969q-.977-16.563-12.93-25.312Q522.508-77.5,506.063-77.5q-17.148,0-27.891,8.4-12.148,9.531-12.148,27.461t12.148,27.422q10.7,8.359,27.891,8.359,16.523,0,27.148-7.773,11.953-8.828,12.813-25.508Zm-26.562,0q-1.445,14.766-21.406,14.766-21.523,0-21.523-17.266,0-17.344,21.523-17.344,19.766,0,21.367,14.531h-7.969q-1.055-6.562-13.4-6.562-8.828,0-11.758,3.086-1.8,1.875-1.8,6.289t1.8,6.25q2.93,3.047,11.758,3.047,12.539,0,13.438-6.8Zm13.32,0q-.82,13.906-10.7,21.289-9.141,6.758-24.023,6.758-15.586,0-24.766-7.383-10.039-8.008-10.039-23.164T481.3-64.8q9.18-7.383,24.766-7.383,14.8,0,23.906,6.68,9.883,7.266,10.82,21.055h-8.008q-.859-9.648-7.676-14.707t-19.043-5.059q-13.086,0-19.961,5.8t-6.875,16.777q0,10.977,6.875,16.777t19.961,5.8q12.3,0,19.141-5.137t7.617-14.941Zm88.072-36.641H600.853V-83.75h28.008Zm0,49.3H616.439q-9.3,0-11.836-1.523-3.75-2.266-3.75-10.82V-57.266h28.008V-49.3H608.822v10.469a5.877,5.877,0,0,0,.664,3.4q.82,1.016,3.438,1.016l15.938-.039Zm-46.523-49.3H560.463V-83.75h21.875Zm46.523,62.539H616.439q-15.078,0-21.484-5-7.344-5.742-7.344-20.469V-62.539H560.463v-7.969h27.148V-83.75h7.969v13.242h33.281v7.969H595.58v23.828q0,11.211,5,14.727,3.984,2.773,15.859,2.773h12.422Zm0,13.242H616.439q-20.9,0-31.211-8.984-10.859-9.531-10.859-29.844V-49.3H560.463v-7.969h21.875v18.438q0,16.953,8.555,24.141,7.93,6.719,25.547,6.719h12.422Z" transform="translate(34.48 115.97)" fill="none" stroke="#fff" stroke-width="1"/>
  </g>
</svg>
