<svg xmlns="http://www.w3.org/2000/svg" xmlns:xlink="http://www.w3.org/1999/xlink" width="1251.13" height="148.852" viewBox="0 0 1251.13 148.852">
  <defs>
    <filter id="original-works" x="0" y="0" width="1251.13" height="148.852" filterUnits="userSpaceOnUse">
      <feOffset input="SourceAlpha"/>
      <feGaussianBlur stdDeviation="10" result="blur"/>
      <feFlood flood-color="#d8b732"/>
      <feComposite operator="in" in2="blur"/>
      <feComposite in="SourceGraphic"/>
    </filter>
  </defs>
  <g transform="matrix(1, 0, 0, 1, 0, 0)" filter="url(#original-works)">
    <path id="original-works-2" data-name="original-works" d="M-499.049-41.641q0,22.227-15.43,33.906-12.969,9.844-32.578,9.844t-32.578-9.844q-15.43-11.68-15.43-33.906t15.43-33.945q13.008-9.883,32.578-9.883t32.578,9.883Q-499.049-63.867-499.049-41.641Zm-7.969,0q0-17.93-12.148-27.461-10.742-8.4-27.891-8.4t-27.891,8.4Q-587.1-59.57-587.1-41.641t12.148,27.422q10.7,8.359,27.891,8.359t27.891-8.359Q-507.018-23.711-507.018-41.641Zm-5.234,0q0,15.156-10.039,23.164-9.18,7.383-24.766,7.383t-24.766-7.383q-10.039-8.008-10.039-23.164T-571.823-64.8q9.18-7.383,24.766-7.383t24.766,7.383Q-512.252-56.8-512.252-41.641Zm-7.969,0q0-10.977-6.875-16.777t-19.961-5.8q-13.086,0-19.961,5.8t-6.875,16.777q0,10.977,6.875,16.777t19.961,5.8q13.086,0,19.961-5.8T-520.221-41.641Zm-5.312,0q0,17.266-21.523,17.266t-21.523-17.266q0-17.344,21.523-17.344T-525.534-41.641Zm-7.969,0q0-4.414-1.8-6.289-2.93-3.086-11.758-3.086t-11.758,3.086q-1.8,1.875-1.8,6.289t1.8,6.25q2.93,3.047,11.758,3.047t11.758-3.047Q-533.5-37.227-533.5-41.641Zm96.861-34.141h-7.969q-17.148,0-27.891,8.4-12.148,9.531-12.148,27.461V0h-7.969V-39.922q0-22.227,15.43-33.945,12.969-9.883,32.578-9.883h7.969Zm0,13.242h-7.969q-13.086,0-19.941,5.8t-6.855,16.816V0h-7.969V-39.922q0-15.156,10-23.2,9.18-7.383,24.766-7.383h7.969Zm0,13.242h-7.969q-8.828,0-11.758,3.086-1.8,1.875-1.8,6.289V0h-7.969V-39.922q0-17.344,21.523-17.344h7.969Zm40.884-26.484H-430.21V-83.75h34.453Zm0,13.242H-430.21v-7.969h34.453Zm0,62.539h-7.969V-57.266h7.969ZM-409,0h-7.969V-57.266H-409Zm-13.242,0h-7.969V-57.266h7.969ZM-293.31-41.758q0,20.938-13.359,32.617-12.852,11.25-34.648,11.25-21.133,0-34.18-11.133-13.828-11.836-13.828-32.617T-375.5-74.3q13.047-11.172,34.18-11.172,17.969,0,30.469,8.359,13.711,9.141,16.758,26.094h-8.164A30.533,30.533,0,0,0-316.67-71.328Q-326.787-77.5-341.318-77.5q-17.734,0-28.477,8.906-11.563,9.57-11.562,26.953t11.563,26.914q10.742,8.867,28.477,8.867,17.188,0,27.344-7.7,10.781-8.164,12.617-24.3h-46.6v-7.3h54.57Q-293.31-43.789-293.31-41.758Zm-14.336,9.414a25.581,25.581,0,0,1-12.812,16.484q-8.594,4.766-20.859,4.766-15.508,0-24.727-7.383-10.078-8.047-10.078-23.164T-366.045-64.8q9.219-7.383,24.727-7.383,12.266,0,20.82,4.727a25.71,25.71,0,0,1,12.852,16.445h-8.437q-5.117-13.2-25.234-13.2Q-368-64.219-368-41.68q0,22.617,26.68,22.617,12.422,0,19.336-5.312h-19.336q-21.523,0-21.523-17.266,0-16.836,21.523-16.875,14.961,0,19.336,7.5h-19.336q-6.68,0-9.57,1.484-3.984,2.109-3.984,7.891,0,5.9,4.219,7.969,2.813,1.328,9.336,1.328Zm55.22-43.437h-34.453V-83.75h34.453Zm0,13.242h-34.453v-7.969h34.453Zm0,62.539h-7.969V-57.266h7.969Zm-13.242,0h-7.969V-57.266h7.969ZM-278.91,0h-7.969V-57.266h7.969Zm128.931,0h-7.969V-41.641q0-17.93-12.148-27.461-10.7-8.4-27.891-8.4t-27.891,8.4q-12.148,9.531-12.148,27.461V0h-7.969V-41.641q0-22.227,15.43-33.945,12.969-9.883,32.578-9.883t32.578,9.883q15.43,11.719,15.43,33.945Zm-13.242,0h-7.969V-41.641q0-11.016-6.855-16.816t-19.941-5.8q-13.086,0-19.941,5.8t-6.855,16.816V0h-7.969V-41.641q0-15.156,10-23.2,9.18-7.383,24.766-7.383t24.766,7.383q10,8.047,10,23.2Zm-13.242,0h-7.969V-41.641q0-4.414-1.8-6.289-2.93-3.086-11.758-3.086t-11.758,3.086q-1.8,1.875-1.8,6.289V0h-7.969V-41.641q0-17.344,21.523-17.344t21.523,17.344ZM-47.532,0H-55.5V-41.641q0-17.93-12.148-27.461-10.7-8.4-27.891-8.4t-27.891,8.4q-12.148,9.531-12.148,27.461t12.148,27.422q10.7,8.359,27.891,8.359a49.326,49.326,0,0,0,21.523-4.414v8.633A59.781,59.781,0,0,1-95.54,2.109q-19.609,0-32.578-9.844-15.43-11.68-15.43-33.906t15.43-33.945q12.969-9.883,32.578-9.883t32.578,9.883q15.43,11.719,15.43,33.945Zm-13.2,0H-68.7V-20.312Q-78-11.094-95.54-11.094q-15.586,0-24.766-7.383-10.039-8.008-10.039-23.164T-120.306-64.8q9.18-7.383,24.766-7.383T-70.774-64.8Q-60.735-56.8-60.735-41.641ZM-68.7-41.641q0-10.977-6.875-16.777t-19.961-5.8q-13.086,0-19.961,5.8t-6.875,16.777q0,10.977,6.875,16.777t19.961,5.8q13.086,0,19.961-5.8T-68.7-41.641Zm-5.312,0q0,17.266-21.523,17.266t-21.523-17.266q0-17.344,21.523-17.344T-74.016-41.641Zm-7.969,0q0-4.414-1.8-6.289-2.93-3.086-11.758-3.086T-107.3-47.93q-1.8,1.875-1.8,6.289t1.8,6.25q2.93,3.047,11.758,3.047t11.758-3.047Q-81.985-37.227-81.985-41.641ZM6.555-26.484h-13.2a7.64,7.64,0,0,1-5.625-2.363,7.781,7.781,0,0,1-2.344-5.684V-83.75h7.969v49.3h13.2Zm0,13.242h-13.2a20.406,20.406,0,0,1-15-6.23,20.548,20.548,0,0,1-6.211-15.059V-83.75h7.969v49.219a12.9,12.9,0,0,0,3.867,9.414,12.7,12.7,0,0,0,9.375,3.906h13.2ZM6.555,0h-13.2A33.14,33.14,0,0,1-31.023-10.117,33.334,33.334,0,0,1-41.1-34.531V-83.75h7.969v49.219a25.63,25.63,0,0,0,7.754,18.789A25.488,25.488,0,0,0-6.648-7.969h13.2Zm235.6-75.781h-8.164a27.187,27.187,0,0,0-14.258,3.867,22.175,22.175,0,0,0-9.336,10.508L195.668-26.289q-.781,1.836-3.711,1.836-2.891,0-3.672-1.836l-14.8-35.117a21.923,21.923,0,0,0-9.687-10.7,27.72,27.72,0,0,0-14.1-3.672,27.857,27.857,0,0,0-14.1,3.672,21.721,21.721,0,0,0-9.648,10.7L111.176-26.289q-.781,1.836-3.711,1.836-2.852,0-3.633-1.836l-14.8-35.117A22.047,22.047,0,0,0,79.75-71.875a27.284,27.284,0,0,0-14.316-3.906H57.27V-83.75h8.164a35.664,35.664,0,0,1,18.594,5A27.669,27.669,0,0,1,96.059-65l11.406,28.945L118.91-65a27.571,27.571,0,0,1,12.461-14.023,36.444,36.444,0,0,1,18.32-4.727,36.3,36.3,0,0,1,18.32,4.727A27.738,27.738,0,0,1,180.512-65l11.445,28.945L203.363-65a27.669,27.669,0,0,1,12.031-13.75,35.664,35.664,0,0,1,18.594-5h8.164Zm0,13.242h-8.164a13.32,13.32,0,0,0-7.051,1.934,11.124,11.124,0,0,0-4.59,5.215L206.957-19.57a13.316,13.316,0,0,1-6.094,6.523,18.461,18.461,0,0,1-8.906,2.148,18.235,18.235,0,0,1-8.867-2.148A13.316,13.316,0,0,1,177-19.57l-15.391-35.82a11.332,11.332,0,0,0-4.844-5.352,14.2,14.2,0,0,0-7.07-1.8,13.773,13.773,0,0,0-6.992,1.8,11.146,11.146,0,0,0-4.8,5.352l-15.43,35.82a13.316,13.316,0,0,1-6.094,6.523,18.461,18.461,0,0,1-8.906,2.148A18.235,18.235,0,0,1,98.6-13.047a13.352,13.352,0,0,1-6.055-6.523l-15.43-35.82a11.237,11.237,0,0,0-4.609-5.2,13.319,13.319,0,0,0-7.07-1.953H57.27v-7.969h8.164a21.817,21.817,0,0,1,11.426,3.125A17.68,17.68,0,0,1,84.3-59.023L99.379-23.555q1.992,4.688,8.086,4.688,6.133,0,8.125-4.687l15.117-35.469a17.468,17.468,0,0,1,7.734-8.555,22.107,22.107,0,0,1,11.25-2.93,22.319,22.319,0,0,1,11.289,2.93,17.647,17.647,0,0,1,7.773,8.555l15.078,35.469q1.992,4.688,8.125,4.688,6.094,0,8.086-4.687L215.2-59.023a17.86,17.86,0,0,1,7.461-8.4,21.517,21.517,0,0,1,11.328-3.086h8.164Zm0,13.242h-7.969L218.441-12.93A23.294,23.294,0,0,1,207.66-1.484a32.18,32.18,0,0,1-15.7,3.867,32.26,32.26,0,0,1-15.742-3.867A23.509,23.509,0,0,1,165.434-12.93L149.691-49.3,133.949-12.93A23.294,23.294,0,0,1,123.168-1.484a32.18,32.18,0,0,1-15.7,3.867,32.18,32.18,0,0,1-15.7-3.867A23.294,23.294,0,0,1,80.98-12.93L65.238-49.3H57.27v-7.969h8.164q5.234,0,7.031,4.219l15.43,36.133a17.122,17.122,0,0,0,7.93,8.477,23.788,23.788,0,0,0,11.641,2.852,24.011,24.011,0,0,0,11.68-2.852,17.122,17.122,0,0,0,7.93-8.477l15.469-36.133q1.8-4.219,7.148-4.219,5.469,0,7.266,4.219l15.391,36.133a17.122,17.122,0,0,0,7.93,8.477,24.011,24.011,0,0,0,11.68,2.852A23.788,23.788,0,0,0,203.6-8.437a17.122,17.122,0,0,0,7.93-8.477L227-53.047q1.8-4.219,6.992-4.219h8.164ZM344.6-41.641q0,22.227-15.43,33.906Q316.2,2.109,296.591,2.109T264.013-7.734q-15.43-11.68-15.43-33.906t15.43-33.945q13.008-9.883,32.578-9.883t32.578,9.883Q344.6-63.867,344.6-41.641Zm-7.969,0q0-17.93-12.148-27.461-10.742-8.4-27.891-8.4T268.7-69.1q-12.148,9.531-12.148,27.461T268.7-14.219q10.7,8.359,27.891,8.359t27.891-8.359Q336.63-23.711,336.63-41.641Zm-5.234,0q0,15.156-10.039,23.164-9.18,7.383-24.766,7.383t-24.766-7.383q-10.039-8.008-10.039-23.164T271.826-64.8q9.18-7.383,24.766-7.383T321.357-64.8Q331.4-56.8,331.4-41.641Zm-7.969,0q0-10.977-6.875-16.777t-19.961-5.8q-13.086,0-19.961,5.8t-6.875,16.777q0,10.977,6.875,16.777t19.961,5.8q13.086,0,19.961-5.8T323.427-41.641Zm-5.312,0q0,17.266-21.523,17.266T275.068-41.641q0-17.344,21.523-17.344T318.115-41.641Zm-7.969,0q0-4.414-1.8-6.289-2.93-3.086-11.758-3.086T284.834-47.93q-1.8,1.875-1.8,6.289t1.8,6.25q2.93,3.047,11.758,3.047t11.758-3.047Q310.146-37.227,310.146-41.641Zm96.861-34.141h-7.969q-17.148,0-27.891,8.4Q359-57.852,359-39.922V0H351.03V-39.922q0-22.227,15.43-33.945,12.969-9.883,32.578-9.883h7.969Zm0,13.242h-7.969q-13.086,0-19.941,5.8t-6.855,16.816V0h-7.969V-39.922q0-15.156,10-23.2,9.18-7.383,24.766-7.383h7.969Zm0,13.242h-7.969q-8.828,0-11.758,3.086-1.8,1.875-1.8,6.289V0h-7.969V-39.922q0-17.344,21.523-17.344h7.969ZM502.97-75.781H485.157a22.072,22.072,0,0,0-6.758,1.074,13.388,13.388,0,0,0-5.078,2.676L439.884-41.406V-83.75h7.969v24.258l21.016-19.141a18.874,18.874,0,0,1,6.875-3.633,30.53,30.53,0,0,1,9.414-1.484H502.97Zm0,49.3H450.743l33.828-30.742h18.4v7.969H487.891l-16.523,14.8h31.6Zm0,13.242H434.61V0h-7.969V-83.75h7.969v53.906l41.641-37.891q3.008-2.734,8.906-2.734H502.97V-62.5H485.157a6.31,6.31,0,0,0-4.375,1.406L436.72-21.211h66.25ZM502.97,0H439.923V-7.969H502.97ZM421.407,0h-7.969V-83.75h7.969ZM595.065-75.781h-57.5a19.443,19.443,0,0,0-14.258,5.938,19.443,19.443,0,0,0-5.937,14.258q0,12.148,12.148,17.344,6.914,2.969,22.891,4.609,5.781.586,7.227.781a33.015,33.015,0,0,1,6.953,1.523q2.227.859,2.227,2.578a1.985,1.985,0,0,1-2.227,2.266H509.4v-7.969h10.9a24.488,24.488,0,0,1-10.9-21.133,27.128,27.128,0,0,1,8.262-19.9,27.128,27.128,0,0,1,19.9-8.262h57.5Zm0,13.242h-57.5a6.615,6.615,0,0,0-4.863,2.07,6.71,6.71,0,0,0-2.051,4.883q0,5.977,13.281,8.125,24.258,3.945,24.648,4.063,13.281,3.984,13.281,14.375a15.118,15.118,0,0,1-4.668,11.172,15.409,15.409,0,0,1-11.23,4.609H509.4v-7.969h56.562a7.725,7.725,0,0,0,5.586-2.285,7.436,7.436,0,0,0,2.344-5.527q0-6.445-13.281-8.711-12.3-1.992-24.648-3.945-13.281-3.789-13.281-13.906a14.381,14.381,0,0,1,4.395-10.508,14.285,14.285,0,0,1,10.488-4.414h57.5Zm0,33.516A27.9,27.9,0,0,1,586.53-8.5,28.1,28.1,0,0,1,565.963,0H509.4V-7.969h56.562a20.412,20.412,0,0,0,14.922-6.172A20.219,20.219,0,0,0,587.1-29.023q0-8.945-6.484-14.023-5.117-3.984-14.8-5.9-3.359-.625-16.055-2.031-3.164-.312-9.141-1.289-3.008-.742-3.008-2.578a2.124,2.124,0,0,1,2.422-2.383l55.039-.039V-49.3H584.987a23.182,23.182,0,0,1,7.441,8.848A25.751,25.751,0,0,1,595.065-29.023Z" transform="translate(625.56 115.97)" fill="none" stroke="#fff" stroke-width="1"/>
  </g>
</svg>
