<svg xmlns="http://www.w3.org/2000/svg" xmlns:xlink="http://www.w3.org/1999/xlink" width="598.795" height="148.852" viewBox="0 0 598.795 148.852">
  <defs>
    <filter id="works" x="0" y="0" width="598.795" height="148.852" filterUnits="userSpaceOnUse">
      <feOffset input="SourceAlpha"/>
      <feGaussianBlur stdDeviation="10" result="blur"/>
      <feFlood flood-color="#d8b732"/>
      <feComposite operator="in" in2="blur"/>
      <feComposite in="SourceGraphic"/>
    </filter>
  </defs>
  <g transform="matrix(1, 0, 0, 1, 0, 0)" filter="url(#works)">
    <path id="works-2" data-name="works" d="M180.9-75.781h-8.164a27.187,27.187,0,0,0-14.258,3.867,22.175,22.175,0,0,0-9.336,10.508L134.414-26.289q-.781,1.836-3.711,1.836-2.891,0-3.672-1.836l-14.8-35.117a21.923,21.923,0,0,0-9.687-10.7,27.72,27.72,0,0,0-14.1-3.672,27.857,27.857,0,0,0-14.1,3.672,21.721,21.721,0,0,0-9.648,10.7L49.922-26.289q-.781,1.836-3.711,1.836-2.852,0-3.633-1.836l-14.8-35.117A22.047,22.047,0,0,0,18.5-71.875,27.284,27.284,0,0,0,4.18-75.781H-3.984V-83.75H4.18a35.664,35.664,0,0,1,18.594,5A27.669,27.669,0,0,1,34.8-65L46.211-36.055,57.656-65A27.571,27.571,0,0,1,70.117-79.023a36.444,36.444,0,0,1,18.32-4.727,36.3,36.3,0,0,1,18.32,4.727A27.738,27.738,0,0,1,119.258-65L130.7-36.055,142.109-65a27.669,27.669,0,0,1,12.031-13.75,35.664,35.664,0,0,1,18.594-5H180.9Zm0,13.242h-8.164a13.32,13.32,0,0,0-7.051,1.934,11.124,11.124,0,0,0-4.59,5.215L145.7-19.57a13.316,13.316,0,0,1-6.094,6.523A18.461,18.461,0,0,1,130.7-10.9a18.235,18.235,0,0,1-8.867-2.148,13.316,13.316,0,0,1-6.094-6.523l-15.391-35.82a11.332,11.332,0,0,0-4.844-5.352,14.2,14.2,0,0,0-7.07-1.8,13.773,13.773,0,0,0-6.992,1.8,11.146,11.146,0,0,0-4.8,5.352L61.211-19.57a13.316,13.316,0,0,1-6.094,6.523A18.461,18.461,0,0,1,46.211-10.9a18.235,18.235,0,0,1-8.867-2.148,13.352,13.352,0,0,1-6.055-6.523l-15.43-35.82a11.237,11.237,0,0,0-4.609-5.2,13.319,13.319,0,0,0-7.07-1.953H-3.984v-7.969H4.18a21.817,21.817,0,0,1,11.426,3.125,17.68,17.68,0,0,1,7.441,8.359L38.125-23.555q1.992,4.688,8.086,4.688,6.133,0,8.125-4.687L69.453-59.023a17.468,17.468,0,0,1,7.734-8.555,22.107,22.107,0,0,1,11.25-2.93,22.319,22.319,0,0,1,11.289,2.93,17.647,17.647,0,0,1,7.773,8.555l15.078,35.469q1.992,4.688,8.125,4.688,6.094,0,8.086-4.687l15.156-35.469a17.86,17.86,0,0,1,7.461-8.4,21.517,21.517,0,0,1,11.328-3.086H180.9Zm0,13.242H172.93L157.188-12.93A23.294,23.294,0,0,1,146.406-1.484a32.18,32.18,0,0,1-15.7,3.867,32.26,32.26,0,0,1-15.742-3.867A23.509,23.509,0,0,1,104.18-12.93L88.438-49.3,72.7-12.93A23.294,23.294,0,0,1,61.914-1.484a32.18,32.18,0,0,1-15.7,3.867,32.18,32.18,0,0,1-15.7-3.867A23.294,23.294,0,0,1,19.727-12.93L3.984-49.3H-3.984v-7.969H4.18q5.234,0,7.031,4.219l15.43,36.133a17.122,17.122,0,0,0,7.93,8.477A23.788,23.788,0,0,0,46.211-5.586a24.011,24.011,0,0,0,11.68-2.852,17.122,17.122,0,0,0,7.93-8.477L81.289-53.047q1.8-4.219,7.148-4.219,5.469,0,7.266,4.219l15.391,36.133a17.122,17.122,0,0,0,7.93,8.477A24.011,24.011,0,0,0,130.7-5.586a23.788,23.788,0,0,0,11.641-2.852,17.122,17.122,0,0,0,7.93-8.477l15.469-36.133q1.8-4.219,6.992-4.219H180.9Zm102.447,7.656q0,22.227-15.43,33.906-12.969,9.844-32.578,9.844T202.759-7.734q-15.43-11.68-15.43-33.906t15.43-33.945q13.008-9.883,32.578-9.883t32.578,9.883Q283.345-63.867,283.345-41.641Zm-7.969,0q0-17.93-12.148-27.461-10.742-8.4-27.891-8.4t-27.891,8.4Q195.3-59.57,195.3-41.641t12.148,27.422q10.7,8.359,27.891,8.359t27.891-8.359Q275.377-23.711,275.377-41.641Zm-5.234,0q0,15.156-10.039,23.164-9.18,7.383-24.766,7.383t-24.766-7.383q-10.039-8.008-10.039-23.164T210.572-64.8q9.18-7.383,24.766-7.383T260.1-64.8Q270.142-56.8,270.142-41.641Zm-7.969,0q0-10.977-6.875-16.777t-19.961-5.8q-13.086,0-19.961,5.8T208.5-41.641q0,10.977,6.875,16.777t19.961,5.8q13.086,0,19.961-5.8T262.173-41.641Zm-5.312,0q0,17.266-21.523,17.266T213.814-41.641q0-17.344,21.523-17.344T256.861-41.641Zm-7.969,0q0-4.414-1.8-6.289-2.93-3.086-11.758-3.086T223.58-47.93q-1.8,1.875-1.8,6.289t1.8,6.25q2.93,3.047,11.758,3.047T247.1-35.391Q248.892-37.227,248.892-41.641Zm96.861-34.141h-7.969q-17.148,0-27.891,8.4-12.148,9.531-12.148,27.461V0h-7.969V-39.922q0-22.227,15.43-33.945,12.969-9.883,32.578-9.883h7.969Zm0,13.242h-7.969q-13.086,0-19.941,5.8t-6.855,16.816V0h-7.969V-39.922q0-15.156,10-23.2,9.18-7.383,24.766-7.383h7.969Zm0,13.242h-7.969q-8.828,0-11.758,3.086-1.8,1.875-1.8,6.289V0h-7.969V-39.922q0-17.344,21.523-17.344h7.969Zm95.962-26.484H423.9a22.072,22.072,0,0,0-6.758,1.074,13.388,13.388,0,0,0-5.078,2.676L378.63-41.406V-83.75H386.6v24.258l21.016-19.141a18.874,18.874,0,0,1,6.875-3.633A30.53,30.53,0,0,1,423.9-83.75h17.813Zm0,49.3H389.489l33.828-30.742h18.4v7.969H426.637l-16.523,14.8h31.6Zm0,13.242H373.356V0h-7.969V-83.75h7.969v53.906L415-67.734Q418-70.469,423.9-70.469h17.813V-62.5H423.9a6.31,6.31,0,0,0-4.375,1.406L375.466-21.211h66.25Zm0,13.242H378.669V-7.969h63.047ZM360.153,0h-7.969V-83.75h7.969ZM533.811-75.781h-57.5a19.443,19.443,0,0,0-14.258,5.938,19.443,19.443,0,0,0-5.937,14.258q0,12.148,12.148,17.344,6.914,2.969,22.891,4.609,5.781.586,7.227.781a33.015,33.015,0,0,1,6.953,1.523q2.227.859,2.227,2.578a1.985,1.985,0,0,1-2.227,2.266H448.147v-7.969h10.9a24.488,24.488,0,0,1-10.9-21.133,27.128,27.128,0,0,1,8.262-19.9,27.128,27.128,0,0,1,19.9-8.262h57.5Zm0,13.242h-57.5a6.615,6.615,0,0,0-4.863,2.07,6.71,6.71,0,0,0-2.051,4.883q0,5.977,13.281,8.125,24.258,3.945,24.648,4.063,13.281,3.984,13.281,14.375a15.118,15.118,0,0,1-4.668,11.172,15.409,15.409,0,0,1-11.23,4.609H448.147v-7.969h56.563A7.725,7.725,0,0,0,510.3-23.5a7.436,7.436,0,0,0,2.344-5.527q0-6.445-13.281-8.711-12.3-1.992-24.648-3.945-13.281-3.789-13.281-13.906a14.381,14.381,0,0,1,4.395-10.508,14.285,14.285,0,0,1,10.488-4.414h57.5Zm0,33.516A27.9,27.9,0,0,1,525.276-8.5,28.1,28.1,0,0,1,504.709,0H448.147V-7.969h56.563a20.412,20.412,0,0,0,14.922-6.172,20.219,20.219,0,0,0,6.211-14.883q0-8.945-6.484-14.023-5.117-3.984-14.8-5.9-3.359-.625-16.055-2.031-3.164-.312-9.141-1.289-3.008-.742-3.008-2.578a2.124,2.124,0,0,1,2.422-2.383l55.039-.039V-49.3H523.733a23.182,23.182,0,0,1,7.441,8.848A25.751,25.751,0,0,1,533.811-29.023Z" transform="translate(34.48 115.97)" fill="none" stroke="#fff" stroke-width="1"/>
  </g>
</svg>
