<svg xmlns="http://www.w3.org/2000/svg" width="29" height="29" viewBox="0 0 29 29">
  <g id="about_dot-mark" transform="translate(-1460 -1315)">
    <path id="楕円形_8" data-name="楕円形 8" d="M9.5,1A8.5,8.5,0,1,0,18,9.5,8.51,8.51,0,0,0,9.5,1m0-1A9.5,9.5,0,1,1,0,9.5,9.5,9.5,0,0,1,9.5,0Z" transform="translate(1465 1320)" fill="#fff"/>
    <path id="パス_580" data-name="パス 580" d="M4.5,0A4.5,4.5,0,1,1,0,4.5,4.5,4.5,0,0,1,4.5,0Z" transform="translate(1470 1325)" fill="#fff"/>
    <path id="楕円形_10" data-name="楕円形 10" d="M14.5,1A13.5,13.5,0,0,0,4.954,24.046,13.5,13.5,0,1,0,24.046,4.954,13.412,13.412,0,0,0,14.5,1m0-1A14.5,14.5,0,1,1,0,14.5,14.5,14.5,0,0,1,14.5,0Z" transform="translate(1460 1315)" fill="#fff"/>
  </g>
</svg>
