<svg xmlns="http://www.w3.org/2000/svg" width="332.815" height="332.756"><path d="M184.479 166.38L329.016 21.843c4.992-4.992 4.992-13.107 0-18.099-4.992-4.992-13.107-4.992-18.099 0L166.38 148.282 21.843 3.745c-4.992-4.992-13.107-4.992-18.099 0-4.992 4.992-4.992 13.107 0 18.099l144.537 144.537L3.744 310.918c-4.992 4.992-4.992 13.107 0 18.099 2.509 2.509 5.785 3.738 9.063 3.738a12.86 12.86 0 009.063-3.738L166.407 184.48l144.538 144.538c2.509 2.509 5.786 3.738 9.063 3.738 3.277 0 6.553-1.255 9.063-3.738 4.992-4.992 4.992-13.107 0-18.099L184.533 166.382z"/></svg>