<svg xmlns="http://www.w3.org/2000/svg" width="35" height="32.083" viewBox="0 0 35 32.083">
  <g id="imac" transform="translate(0 -21.333)">
    <path id="パス_581" data-name="パス 581" d="M32.083,21.333H2.917A2.92,2.92,0,0,0,0,24.25V44.666a2.92,2.92,0,0,0,2.917,2.917H13.128c-.031,1.163-.253,3.024-1.087,3.9a1.433,1.433,0,0,1-1.1.472.729.729,0,0,0,0,1.458H24.062a.729.729,0,0,0,0-1.458,1.427,1.427,0,0,1-1.1-.471c-.832-.874-1.056-2.738-1.088-3.9H32.083A2.92,2.92,0,0,0,35,44.666V24.25A2.92,2.92,0,0,0,32.083,21.333ZM17.5,46.129a1.463,1.463,0,1,1,1.463-1.463A1.465,1.465,0,0,1,17.5,46.129ZM2.917,41.75V24.25H32.083v17.5Z" fill="#fff"/>
  </g>
</svg>
