<svg xmlns="http://www.w3.org/2000/svg" width="38.698" height="32" viewBox="0 0 38.698 32">
  <g id="mail" transform="translate(-3766.037 -544.029)">
    <path id="長方形_1" data-name="長方形 1" d="M-.721-5h30.14A4.284,4.284,0,0,1,33.7-.721V22.721A4.284,4.284,0,0,1,29.419,27H-.721A4.284,4.284,0,0,1-5,22.721V-.721A4.284,4.284,0,0,1-.721-5Zm30.14,30.14a2.421,2.421,0,0,0,2.419-2.419V-.721A2.421,2.421,0,0,0,29.419-3.14H-.721A2.421,2.421,0,0,0-3.14-.721V22.721A2.421,2.421,0,0,0-.721,25.14Z" transform="translate(3771.037 549.029)" fill="#fff"/>
    <path id="パス_2" data-name="パス 2" d="M3785.386,577.284a.93.93,0,0,1-.547-.178l-18.418-13.4a.93.93,0,0,1,1.094-1.5l17.871,13,17.872-13a.93.93,0,0,1,1.094,1.5l-18.419,13.4A.93.93,0,0,1,3785.386,577.284Z" transform="translate(0 -14.651)" fill="#fff"/>
  </g>
</svg>
