<svg xmlns="http://www.w3.org/2000/svg" width="20" height="20" viewBox="0 0 20 20">
  <g id="up-arrow" transform="translate(20) rotate(90)">
    <path id="パス_283" data-name="パス 283" d="M10,0A10,10,0,1,0,20,10,10.011,10.011,0,0,0,10,0Zm0,18.451A8.451,8.451,0,1,1,18.451,10,8.461,8.461,0,0,1,10,18.451Z" fill="#fff"/>
    <path id="パス_284" data-name="パス 284" d="M147.222,182.545l-3.873-3.873a.774.774,0,0,0-1.092,0l-3.873,3.873a.775.775,0,0,0,1.092,1.092l3.323-3.323,3.331,3.323a.772.772,0,1,0,1.092-1.092Z" transform="translate(-132.799 -171.476)" fill="#fff"/>
  </g>
</svg>
